<svg width="25" height="25" viewBox="0 0 25 25" fill="none" xmlns="http://www.w3.org/2000/svg">
<path d="M22.5559 10.4951H21.7504V10.4536H12.7504V14.4536H18.4019C17.5774 16.7821 15.3619 18.4536 12.7504 18.4536C9.43687 18.4536 6.75037 15.7671 6.75037 12.4536C6.75037 9.14011 9.43687 6.45361 12.7504 6.45361C14.2799 6.45361 15.6714 7.03061 16.7309 7.97311L19.5594 5.14461C17.7734 3.48011 15.3844 2.45361 12.7504 2.45361C7.22787 2.45361 2.75037 6.93111 2.75037 12.4536C2.75037 17.9761 7.22787 22.4536 12.7504 22.4536C18.2729 22.4536 22.7504 17.9761 22.7504 12.4536C22.7504 11.7831 22.6814 11.1286 22.5559 10.4951Z" fill="#FFC107"/>
<path d="M3.90332 7.79911L7.18882 10.2086C8.07782 8.00761 10.2308 6.45361 12.7503 6.45361C14.2798 6.45361 15.6713 7.03061 16.7308 7.97311L19.5593 5.14461C17.7733 3.48011 15.3843 2.45361 12.7503 2.45361C8.90932 2.45361 5.57832 4.62211 3.90332 7.79911Z" fill="#FF3D00"/>
<path d="M12.7504 22.4537C15.3334 22.4537 17.6804 21.4652 19.4549 19.8577L16.3599 17.2387C15.3222 18.0279 14.0541 18.4547 12.7504 18.4537C10.1494 18.4537 7.9409 16.7952 7.1089 14.4807L3.8479 16.9932C5.5029 20.2317 8.8639 22.4537 12.7504 22.4537Z" fill="#4CAF50"/>
<path d="M22.5559 10.4951H21.7504V10.4536H12.7504V14.4536H18.4019C18.0075 15.5618 17.297 16.5302 16.3584 17.2391L16.3599 17.2381L19.4549 19.8571C19.2359 20.0561 22.7504 17.4536 22.7504 12.4536C22.7504 11.7831 22.6814 11.1286 22.5559 10.4951Z" fill="#1976D2"/>
</svg>
