<svg width="24" height="24" viewBox="0 0 24 24" fill="none" xmlns="http://www.w3.org/2000/svg">
<path d="M21.9999 18.005C21.9999 18.555 21.5539 19 21.0049 19H12.9949C12.731 19 12.4779 18.8952 12.2913 18.7086C12.1047 18.522 11.9999 18.2689 11.9999 18.005C11.9999 17.7411 12.1047 17.488 12.2913 17.3014C12.4779 17.1148 12.731 17.01 12.9949 17.01H21.0049C21.5549 17.01 21.9999 17.455 21.9999 18.005ZM21.9999 12C21.9999 12.55 21.5539 12.995 21.0049 12.995H2.99488C2.73099 12.995 2.47791 12.8902 2.29131 12.7036C2.10471 12.517 1.99988 12.2639 1.99988 12C1.99988 11.7361 2.10471 11.483 2.29131 11.2964C2.47791 11.1098 2.73099 11.005 2.99488 11.005H21.0049C21.5549 11.005 21.9999 11.451 21.9999 12ZM21.0049 6.99C21.2688 6.99 21.5219 6.88517 21.7084 6.69857C21.895 6.51197 21.9999 6.25889 21.9999 5.995C21.9999 5.73111 21.895 5.47803 21.7084 5.29143C21.5219 5.10483 21.2688 5 21.0049 5H8.99488C8.86421 5 8.73483 5.02574 8.61411 5.07574C8.49339 5.12574 8.3837 5.19903 8.29131 5.29143C8.19891 5.38382 8.12562 5.49351 8.07562 5.61423C8.02561 5.73495 7.99988 5.86433 7.99988 5.995C7.99988 6.12567 8.02561 6.25505 8.07562 6.37577C8.12562 6.49649 8.19891 6.60618 8.29131 6.69857C8.3837 6.79097 8.49339 6.86426 8.61411 6.91426C8.73483 6.96426 8.86421 6.99 8.99488 6.99H21.0049Z" fill="#FD9595"/>
</svg>
